<svg xmlns="http://www.w3.org/2000/svg" viewBox="0 0 306.02 40"><g data-name="Layer 2"><path style="fill:#fff" data-name="Layer 1" d="M53 30.5V11.42a8.8 8.8 0 0 1 2.1-1.16 28 28 0 0 1 3.48-1.18 15 15 0 0 1 3.93-.52 13.4 13.4 0 0 1 3.12.29 4.8 4.8 0 0 1 1.73.76v4.59a12 12 0 0 0-1.84-.2c-.73-.06-1.48-.09-2.27-.11s-1.53 0-2.23 0a15 15 0 0 0-1.77.17V30.5Zm26.93.63a11.7 11.7 0 0 1-5.67-1.33 9.4 9.4 0 0 1-3.83-3.8 11.93 11.93 0 0 1-1.37-5.87q0-5.57 2.76-8.61t7.9-3.06a9.8 9.8 0 0 1 5.7 1.54 8.6 8.6 0 0 1 3.18 4.42 21.1 21.1 0 0 1 1 7.08H73.36l-.68-4h11.71l-.93 2a9.3 9.3 0 0 0-1-4.8 3.37 3.37 0 0 0-3-1.39 4 4 0 0 0-2.12.59 3.82 3.82 0 0 0-1.48 2 10.9 10.9 0 0 0-.52 3.77 6.8 6.8 0 0 0 1.45 4.67q1.45 1.65 4.65 1.65a9.7 9.7 0 0 0 2.34-.28A18 18 0 0 0 86 25c.67-.25 1.25-.48 1.72-.67v5.37a19.6 19.6 0 0 1-3.39 1 21.5 21.5 0 0 1-4.4.43m24-.13a13.5 13.5 0 0 1-4.3-.67 10.5 10.5 0 0 1-3.58-2 9.3 9.3 0 0 1-2.44-3.41 12.1 12.1 0 0 1-.88-4.8 14 14 0 0 1 .84-5.08 9.9 9.9 0 0 1 2.34-3.6 9.5 9.5 0 0 1 3.51-2.14 13.3 13.3 0 0 1 4.47-.72 18.4 18.4 0 0 1 3.55.36 14.6 14.6 0 0 1 3.22 1v5.39a25 25 0 0 0-2.88-1.12 9.7 9.7 0 0 0-2.88-.44 6.52 6.52 0 0 0-4.28 1.33A5.25 5.25 0 0 0 99 19.42a7 7 0 0 0 1.43 4.76c1 1.07 2.54 1.6 4.76 1.6a8.4 8.4 0 0 0 3-.55 19 19 0 0 0 2.51-1.13v5.34a15 15 0 0 1-3.08 1.18 14.6 14.6 0 0 1-3.69.38m19.87.34q-3.7 0-5.51-1.75a6.53 6.53 0 0 1-1.81-4.95V14h-3.12V9.19h3.12V3.34H123v5.85h4.68V14H123v9.85a2.4 2.4 0 0 0 .47 1.62 2 2 0 0 0 1.56.53 4.4 4.4 0 0 0 1.39-.25 4.6 4.6 0 0 0 1.26-.63v5.38a6.8 6.8 0 0 1-1.92.65 10.7 10.7 0 0 1-1.96.19m16.89-.21a17.6 17.6 0 0 1-3.64-.36 8.8 8.8 0 0 1-3-1.18 5.53 5.53 0 0 1-2-2.23 7.7 7.7 0 0 1-.72-3.52 6.93 6.93 0 0 1 .82-3.45 5.4 5.4 0 0 1 2.51-2.27 9.8 9.8 0 0 1 4.25-.8 13.5 13.5 0 0 1 2.78.29 11.5 11.5 0 0 1 2.42.8 6.4 6.4 0 0 1 1.7 1.1l.26 3a7.5 7.5 0 0 0-2-.8 10.3 10.3 0 0 0-2.53-.3 5.77 5.77 0 0 0-3 .61 2.13 2.13 0 0 0-1 1.92 2.42 2.42 0 0 0 .46 1.46 3 3 0 0 0 1.25 1 4 4 0 0 0 1.62.34 10.4 10.4 0 0 0 3-.3 1.15 1.15 0 0 0 .86-1.18V17.4a3.17 3.17 0 0 0-1.24-2.8 6.16 6.16 0 0 0-3.52-.86 11.4 11.4 0 0 0-3.72.65 10.7 10.7 0 0 0-3.02 1.61v-5.59a12.8 12.8 0 0 1 3.39-1.26 21 21 0 0 1 5.16-.59 17 17 0 0 1 2.23.17 11.6 11.6 0 0 1 2.45.61 7.7 7.7 0 0 1 2.25 1.28 6.2 6.2 0 0 1 1.66 2.15A7.4 7.4 0 0 1 151 16v10.07a3.78 3.78 0 0 1-1.26 2.93 7.4 7.4 0 0 1-3.52 1.62 26 26 0 0 1-5.53.51M156.56 11a15 15 0 0 1 2.11-.86 24 24 0 0 1 2.86-.78c1-.23 2.09-.41 3.14-.55a22 22 0 0 1 2.92-.21 14.4 14.4 0 0 1 4.89.74 6 6 0 0 1 3.09 2.38 8 8 0 0 1 1.08 4.46V30.5h-6.28V17.44a4.4 4.4 0 0 0-.23-1.47 3 3 0 0 0-.69-1.16 3.2 3.2 0 0 0-1.27-.76 6 6 0 0 0-1.93-.27 8.6 8.6 0 0 0-1.94.23 7 7 0 0 0-1.47.49v16h-6.28Zm33.82 20.13a11.2 11.2 0 0 1-5-1.35 8 8 0 0 1-3.25-3.47 12.8 12.8 0 0 1-1.13-5.79 16.8 16.8 0 0 1 .89-5.88 8.5 8.5 0 0 1 2.44-3.64 9.4 9.4 0 0 1 3.81-1.85 20.7 20.7 0 0 1 5-.55 14.6 14.6 0 0 1 4.63.67 7 7 0 0 1 3.08 1.94 4.58 4.58 0 0 1 1.09 3.12v16.42a10.3 10.3 0 0 1-.71 3.94 7.4 7.4 0 0 1-2.13 2.86 9.7 9.7 0 0 1-3.41 1.75 16.4 16.4 0 0 1-4.61.59 25.5 25.5 0 0 1-4.82-.4 11 11 0 0 1-3.06-1V33c.43.17 1 .39 1.86.67a17 17 0 0 0 2.73.7 17.4 17.4 0 0 0 3 .27 6.94 6.94 0 0 0 3-.54 3.14 3.14 0 0 0 1.49-1.48 5 5 0 0 0 .42-2.1V27l1.23.89a7.7 7.7 0 0 1-1.6 1.68 7.1 7.1 0 0 1-2.17 1.12 9.5 9.5 0 0 1-2.78.44m1.6-4.72a8 8 0 0 0 2-.23 7.2 7.2 0 0 0 1.76-.69v-9.77a1.73 1.73 0 0 0-.5-1.35 2.7 2.7 0 0 0-1.26-.63 7.5 7.5 0 0 0-1.6-.17 5 5 0 0 0-3.06.84 4.67 4.67 0 0 0-1.6 2.34 11 11 0 0 0-.48 3.39 7.3 7.3 0 0 0 1.3 4.59 4.13 4.13 0 0 0 3.46 1.68Zm21.43 4.09h-6.23V1.15h6.23Zm15.2.63A11.7 11.7 0 0 1 223 29.8a9.4 9.4 0 0 1-3.89-3.8 11.93 11.93 0 0 1-1.37-5.87q0-5.57 2.76-8.61t7.9-3.06a9.73 9.73 0 0 1 5.7 1.54 8.6 8.6 0 0 1 3.18 4.42 20.9 20.9 0 0 1 1 7.08H222l-.67-4h11.7l-.92 2a9.43 9.43 0 0 0-1-4.8 3.39 3.39 0 0 0-3-1.39 4 4 0 0 0-2.13.59 3.86 3.86 0 0 0-1.47 2 10.6 10.6 0 0 0-.53 3.77 6.8 6.8 0 0 0 1.45 4.67q1.46 1.65 4.65 1.65a9.7 9.7 0 0 0 2.34-.28 18 18 0 0 0 2.17-.65l1.73-.67v5.31a19.6 19.6 0 0 1-3.39 1 21.6 21.6 0 0 1-4.32.43m24.21 0a17.7 17.7 0 0 1-4.57-.55 8.9 8.9 0 0 1-3.6-1.83 8.6 8.6 0 0 1-2.38-3.52 15.6 15.6 0 0 1-.86-5.55q0-5.19 2.55-8.17c1.7-2 4.24-3 7.64-3 .45 0 1 0 1.77.1a9.4 9.4 0 0 1 2.27.53 5.25 5.25 0 0 1 2.11 1.43l-1.27 1.94V.43h6.24v24.51a4.42 4.42 0 0 1-.85 2.71 6.4 6.4 0 0 1-2.25 1.92 12.5 12.5 0 0 1-3.18 1.16 16.7 16.7 0 0 1-3.62.4m.25-5.26a6.4 6.4 0 0 0 2.47-.41 1.28 1.28 0 0 0 .94-1.2v-9.81a7.2 7.2 0 0 0-1.62-.65 6.6 6.6 0 0 0-1.66-.23 6.9 6.9 0 0 0-3 .59 3.8 3.8 0 0 0-1.83 2 9.4 9.4 0 0 0-.61 3.75 9 9 0 0 0 .5 3.17 4.08 4.08 0 0 0 1.67 2.07 5.77 5.77 0 0 0 3.14.72m20.52 4.63v-21h6.28v21Zm21.52.63c-3.59 0-6.3-1-8.11-2.89s-2.71-4.75-2.71-8.48c0-4 .92-6.9 2.76-8.65s4.52-2.64 8.06-2.64a13.4 13.4 0 0 1 6 1.2 7.94 7.94 0 0 1 3.66 3.69 14.3 14.3 0 0 1 1.25 6.4q0 5.59-2.83 8.48t-8.08 2.89m0-5a4.36 4.36 0 0 0 2.59-.74 4.45 4.45 0 0 0 1.56-2.15 10 10 0 0 0 .52-3.47 10.8 10.8 0 0 0-.52-3.73 3.75 3.75 0 0 0-1.58-2 5.1 5.1 0 0 0-2.57-.61 4.85 4.85 0 0 0-2.61.63 3.8 3.8 0 0 0-1.5 2 11.5 11.5 0 0 0-.48 3.69 8.27 8.27 0 0 0 1.12 4.78 4 4 0 0 0 3.47 1.59Zm-26.96 4.36a2.4 2.4 0 0 1-1.85-.66 2.7 2.7 0 0 1-.62-1.93 2.6 2.6 0 0 1 .63-2 2.56 2.56 0 0 1 1.84-.6 3.1 3.1 0 0 1 1.36.27 1.74 1.74 0 0 1 .83.84 3.2 3.2 0 0 1 .29 1.45 2.63 2.63 0 0 1-.65 1.93 2.43 2.43 0 0 1-1.83.7m8.59-23.69a3.16 3.16 0 0 1-2.43-.87 3.53 3.53 0 0 1-.82-2.54 3.48 3.48 0 0 1 .83-2.6 3.36 3.36 0 0 1 2.42-.79 4.1 4.1 0 0 1 1.8.36 2.4 2.4 0 0 1 1.1 1.11 4.24 4.24 0 0 1 .36 1.92 3.5 3.5 0 0 1-.84 2.54 3.25 3.25 0 0 1-2.42.87M40 .43H2.23A2.23 2.23 0 0 0 0 2.65v26.57a2.23 2.23 0 0 0 2.22 2.23h17.93l11.1 8.12a2.23 2.23 0 0 0 3.55-1.86v-6.26H40a2.22 2.22 0 0 0 2.22-2.23V2.65A2.22 2.22 0 0 0 40 .43M17.68 18.08a1.5 1.5 0 0 1-.36.05 1.33 1.33 0 0 1-1.28-1 3.11 3.11 0 0 0-6 0 1.33 1.33 0 1 1-2.56-.71 5.77 5.77 0 0 1 11.11 0 1.33 1.33 0 0 1-.91 1.66m16.11 0a1.5 1.5 0 0 1-.36.05 1.33 1.33 0 0 1-1.28-1 3.1 3.1 0 0 0-6 0 1.33 1.33 0 1 1-2.57-.71 5.77 5.77 0 0 1 11.12 0 1.33 1.33 0 0 1-.91 1.66"/></g></svg>