<svg xmlns="http://www.w3.org/2000/svg" viewBox="0 0 306.02 40"><defs><style>.cls-1{fill:#322b51;}</style></defs><g id="Layer_2" data-name="Layer 2"><g id="Layer_1-2" data-name="Layer 1"><path class="cls-1" d="M53,30.5V11.42a8.77,8.77,0,0,1,2.1-1.16,27.63,27.63,0,0,1,3.48-1.18,15,15,0,0,1,3.93-.52,13.4,13.4,0,0,1,3.12.29,4.83,4.83,0,0,1,1.73.76V14.2A11.94,11.94,0,0,0,65.52,14c-.73-.06-1.48-.09-2.27-.11s-1.53,0-2.23,0a14.78,14.78,0,0,0-1.77.17V30.5Z"/><path class="cls-1" d="M79.93,31.13a11.7,11.7,0,0,1-5.67-1.33A9.38,9.38,0,0,1,70.43,26a11.93,11.93,0,0,1-1.37-5.87q0-5.57,2.76-8.61t7.9-3.06A9.78,9.78,0,0,1,85.42,10a8.61,8.61,0,0,1,3.18,4.42,21.11,21.11,0,0,1,1,7.08H73.36l-.68-4H84.39l-.93,2a9.32,9.32,0,0,0-1-4.8,3.37,3.37,0,0,0-3-1.39,4,4,0,0,0-2.12.59,3.82,3.82,0,0,0-1.48,2,10.86,10.86,0,0,0-.52,3.77,6.8,6.8,0,0,0,1.45,4.67q1.45,1.65,4.65,1.65a9.73,9.73,0,0,0,2.34-.28A18.42,18.42,0,0,0,86,25c.67-.25,1.25-.48,1.72-.67V29.7a19.63,19.63,0,0,1-3.39,1A21.49,21.49,0,0,1,79.93,31.13Z"/><path class="cls-1" d="M103.93,31a13.49,13.49,0,0,1-4.3-.67,10.45,10.45,0,0,1-3.58-2,9.28,9.28,0,0,1-2.44-3.41,12.13,12.13,0,0,1-.88-4.8,14,14,0,0,1,.84-5.08,9.86,9.86,0,0,1,2.34-3.6,9.54,9.54,0,0,1,3.51-2.14,13.26,13.26,0,0,1,4.47-.72,18.35,18.35,0,0,1,3.55.36,14.55,14.55,0,0,1,3.22,1v5.39a25.41,25.41,0,0,0-2.88-1.12,9.72,9.72,0,0,0-2.88-.44,6.52,6.52,0,0,0-4.28,1.33A5.25,5.25,0,0,0,99,19.42a7,7,0,0,0,1.43,4.76c1,1.07,2.54,1.6,4.76,1.6a8.36,8.36,0,0,0,3-.55,18.79,18.79,0,0,0,2.51-1.13v5.34a14.94,14.94,0,0,1-3.08,1.18A14.61,14.61,0,0,1,103.93,31Z"/><path class="cls-1" d="M123.8,31.34q-3.7,0-5.51-1.75a6.53,6.53,0,0,1-1.81-4.95V14h-3.12V9.19h3.12V3.34H123V9.19h4.68V14H123v9.85a2.39,2.39,0,0,0,.47,1.62,2,2,0,0,0,1.56.53,4.4,4.4,0,0,0,1.39-.25,4.63,4.63,0,0,0,1.26-.63V30.5a6.8,6.8,0,0,1-1.92.65A10.73,10.73,0,0,1,123.8,31.34Z"/><path class="cls-1" d="M140.69,31.13a17.55,17.55,0,0,1-3.64-.36,8.79,8.79,0,0,1-3-1.18,5.53,5.53,0,0,1-2-2.23,7.69,7.69,0,0,1-.72-3.52,6.93,6.93,0,0,1,.82-3.45,5.41,5.41,0,0,1,2.51-2.27,9.8,9.8,0,0,1,4.25-.8,13.45,13.45,0,0,1,2.78.29,11.45,11.45,0,0,1,2.42.8,6.4,6.4,0,0,1,1.7,1.1l.26,3a7.47,7.47,0,0,0-2-.8,10.26,10.26,0,0,0-2.53-.3,5.77,5.77,0,0,0-3,.61,2.13,2.13,0,0,0-1,1.92A2.42,2.42,0,0,0,138,25.4a3,3,0,0,0,1.25,1,4,4,0,0,0,1.62.34,10.37,10.37,0,0,0,3-.3,1.15,1.15,0,0,0,.86-1.18V17.4a3.17,3.17,0,0,0-1.24-2.8,6.16,6.16,0,0,0-3.52-.86,11.39,11.39,0,0,0-3.72.65A10.67,10.67,0,0,0,133.23,16V10.41a12.78,12.78,0,0,1,3.39-1.26,20.91,20.91,0,0,1,5.16-.59,16.69,16.69,0,0,1,2.23.17,11.56,11.56,0,0,1,2.45.61,7.65,7.65,0,0,1,2.25,1.28,6.17,6.17,0,0,1,1.66,2.15A7.43,7.43,0,0,1,151,16l0,10.07A3.78,3.78,0,0,1,149.74,29a7.4,7.4,0,0,1-3.52,1.62A25.84,25.84,0,0,1,140.69,31.13Z"/><path class="cls-1" d="M156.56,11a14.88,14.88,0,0,1,2.11-.86,24,24,0,0,1,2.86-.78c1-.23,2.09-.41,3.14-.55a22.27,22.27,0,0,1,2.92-.21,14.38,14.38,0,0,1,4.89.74,6,6,0,0,1,3.09,2.38,8,8,0,0,1,1.08,4.46V30.5h-6.28V17.44a4.36,4.36,0,0,0-.23-1.47,3,3,0,0,0-.69-1.16,3.21,3.21,0,0,0-1.27-.76,6,6,0,0,0-1.93-.27,8.57,8.57,0,0,0-1.94.23,7.1,7.1,0,0,0-1.47.49v16h-6.28Z"/><path class="cls-1" d="M190.38,31.13a11.22,11.22,0,0,1-5-1.35,8,8,0,0,1-3.25-3.47A12.83,12.83,0,0,1,181,20.52a16.77,16.77,0,0,1,.89-5.88A8.5,8.5,0,0,1,184.33,11a9.42,9.42,0,0,1,3.81-1.85,20.66,20.66,0,0,1,5-.55,14.63,14.63,0,0,1,4.63.67,7,7,0,0,1,3.08,1.94,4.58,4.58,0,0,1,1.09,3.12V30.75a10.26,10.26,0,0,1-.71,3.94,7.37,7.37,0,0,1-2.13,2.86,9.74,9.74,0,0,1-3.41,1.75,16.43,16.43,0,0,1-4.61.59,25.49,25.49,0,0,1-4.82-.4,11.06,11.06,0,0,1-3.06-1V33c.43.17,1,.39,1.86.67a16.94,16.94,0,0,0,2.73.7,17.35,17.35,0,0,0,3,.27,6.94,6.94,0,0,0,3-.54,3.14,3.14,0,0,0,1.49-1.48,5,5,0,0,0,.42-2.1V27l1.23.89a7.74,7.74,0,0,1-1.6,1.68,7.07,7.07,0,0,1-2.17,1.12A9.5,9.5,0,0,1,190.38,31.13Zm1.6-4.72a8.12,8.12,0,0,0,2-.23,7.16,7.16,0,0,0,1.76-.69V15.72a1.73,1.73,0,0,0-.5-1.35,2.69,2.69,0,0,0-1.26-.63,7.54,7.54,0,0,0-1.6-.17,5,5,0,0,0-3.06.84,4.67,4.67,0,0,0-1.6,2.34,11.06,11.06,0,0,0-.48,3.39,7.3,7.3,0,0,0,1.3,4.59A4.13,4.13,0,0,0,192,26.41Z"/><path class="cls-1" d="M213.41,30.5h-6.23V1.15h6.23Z"/><path class="cls-1" d="M228.61,31.13A11.69,11.69,0,0,1,223,29.8,9.41,9.41,0,0,1,219.11,26a11.93,11.93,0,0,1-1.37-5.87q0-5.57,2.76-8.61t7.9-3.06A9.73,9.73,0,0,1,234.1,10a8.61,8.61,0,0,1,3.18,4.42,20.85,20.85,0,0,1,1,7.08H222l-.67-4h11.7l-.92,2a9.43,9.43,0,0,0-1-4.8,3.39,3.39,0,0,0-3-1.39,4,4,0,0,0-2.13.59,3.86,3.86,0,0,0-1.47,2,10.6,10.6,0,0,0-.53,3.77,6.8,6.8,0,0,0,1.45,4.67q1.46,1.65,4.65,1.65a9.73,9.73,0,0,0,2.34-.28,17.87,17.87,0,0,0,2.17-.65l1.73-.67V29.7a19.63,19.63,0,0,1-3.39,1A21.59,21.59,0,0,1,228.61,31.13Z"/><path class="cls-1" d="M252.82,31.13a17.72,17.72,0,0,1-4.57-.55,8.91,8.91,0,0,1-3.6-1.83,8.6,8.6,0,0,1-2.38-3.52,15.59,15.59,0,0,1-.86-5.55q0-5.19,2.55-8.17c1.7-2,4.24-3,7.64-3,.45,0,1,0,1.77.1a9.41,9.41,0,0,1,2.27.53,5.25,5.25,0,0,1,2.11,1.43l-1.27,1.94V.43h6.24V24.94a4.42,4.42,0,0,1-.85,2.71,6.43,6.43,0,0,1-2.25,1.92,12.46,12.46,0,0,1-3.18,1.16A16.73,16.73,0,0,1,252.82,31.13Zm.25-5.26a6.36,6.36,0,0,0,2.47-.41,1.28,1.28,0,0,0,.94-1.2V14.45a7.22,7.22,0,0,0-1.62-.65,6.56,6.56,0,0,0-1.66-.23,6.87,6.87,0,0,0-3,.59,3.79,3.79,0,0,0-1.83,2,9.39,9.39,0,0,0-.61,3.75,9.05,9.05,0,0,0,.5,3.17,4.08,4.08,0,0,0,1.67,2.07A5.77,5.77,0,0,0,253.07,25.87Z"/><path class="cls-1" d="M273.59,30.5v-21h6.28l0,21Z"/><path class="cls-1" d="M295.11,31.13c-3.59,0-6.3-1-8.11-2.89s-2.71-4.75-2.71-8.48c0-4,.92-6.9,2.76-8.65s4.52-2.64,8.06-2.64a13.42,13.42,0,0,1,6,1.2,7.94,7.94,0,0,1,3.66,3.69,14.3,14.3,0,0,1,1.25,6.4q0,5.59-2.83,8.48T295.11,31.13Zm0-5a4.36,4.36,0,0,0,2.59-.74,4.45,4.45,0,0,0,1.56-2.15,10,10,0,0,0,.52-3.47,10.77,10.77,0,0,0-.52-3.73,3.75,3.75,0,0,0-1.58-2,5.12,5.12,0,0,0-2.57-.61,4.85,4.85,0,0,0-2.61.63,3.81,3.81,0,0,0-1.5,2,11.54,11.54,0,0,0-.48,3.69,8.27,8.27,0,0,0,1.12,4.78A4,4,0,0,0,295.11,26.12Z"/><path class="cls-1" d="M268.15,30.49a2.41,2.41,0,0,1-1.85-.66,2.71,2.71,0,0,1-.62-1.93,2.59,2.59,0,0,1,.63-2,2.56,2.56,0,0,1,1.84-.6,3.08,3.08,0,0,1,1.36.27,1.74,1.74,0,0,1,.83.84,3.19,3.19,0,0,1,.29,1.45,2.63,2.63,0,0,1-.65,1.93A2.43,2.43,0,0,1,268.15,30.49Z"/><path class="cls-1" d="M276.74,6.8a3.16,3.16,0,0,1-2.43-.87,3.53,3.53,0,0,1-.82-2.54,3.48,3.48,0,0,1,.83-2.6A3.36,3.36,0,0,1,276.74,0a4.07,4.07,0,0,1,1.8.36,2.41,2.41,0,0,1,1.1,1.11A4.24,4.24,0,0,1,280,3.39a3.49,3.49,0,0,1-.84,2.54A3.25,3.25,0,0,1,276.74,6.8Z"/><path class="cls-1" d="M40,.43H2.23A2.23,2.23,0,0,0,0,2.65V29.22a2.23,2.23,0,0,0,2.22,2.23H20.15l11.1,8.12a2.23,2.23,0,0,0,3.55-1.86V31.45H40a2.22,2.22,0,0,0,2.22-2.23V2.65A2.22,2.22,0,0,0,40,.43ZM17.68,18.08a1.49,1.49,0,0,1-.36.05,1.33,1.33,0,0,1-1.28-1,3.11,3.11,0,0,0-6,0,1.33,1.33,0,1,1-2.56-.71,5.77,5.77,0,0,1,11.11,0A1.33,1.33,0,0,1,17.68,18.08Zm16.11,0a1.49,1.49,0,0,1-.36.05,1.33,1.33,0,0,1-1.28-1,3.1,3.1,0,0,0-6,0,1.33,1.33,0,1,1-2.57-.71,5.77,5.77,0,0,1,11.12,0A1.33,1.33,0,0,1,33.79,18.08Z"/></g></g></svg>